# xmcd
#
# Track frame offsets:
#	150
#	13421
#	28063
#	39890
#	49655
#	61619
#	73462
#	85686
#	96661
#	107972
#	127128
#	139595
#	156672
#	168927
#	183293
#	200097
#
# Disc length: 2965 seconds
#
# Revision: 4
# Processed by: cddbd v1.5.2PL0 Copyright (c) Steve Scherf et al.
# Submitted via: audiograbber 1.83.01
#
DISCID=eb0b9310
DTITLE=Various Artist - Elite Country [Disc 4]
DYEAR=2002
DGENRE=Country
TTITLE0=Charlie Rich - Behind Closed Doors
TTITLE1=Johnny Paycheck - A Good Year For The Roses
TTITLE2=Johnny Russell - Softly And Tenderly
TTITLE3=Johnny Cash - Rock Island Line
TTITLE4=Jack Greene - There Goes My Everything
TTITLE5=Bonnie Guitar - Dark Moon
TTITLE6=Stonewall Jackson - I Love You Because
TTITLE7=Wanda Jackson - Sweet Nothin's
TTITLE8=Kitty Wells - It Wasn't God Who Made Honky Tonk Angels
TTITLE9=Bill and Boyd - Santa Never Made It Into Darwin
TTITLE10=Wanda Jackson - Crazy
TTITLE11=Ray Price - For The Good Times
TTITLE12=Sammi Smith - What Does It Take
TTITLE13=Johnny Chester - Once I Was A Truck Driving Man
TTITLE14=Bluestone - Road To Nowhere
TTITLE15=The Marshall Tucker Band - Heard It In A Love Song
EXTD=
EXTT0=
EXTT1=
EXTT2=
EXTT3=
EXTT4=
EXTT5=
EXTT6=
EXTT7=
EXTT8=
EXTT9=
EXTT10=
EXTT11=
EXTT12=
EXTT13=
EXTT14=
EXTT15=
PLAYORDER=
